<svg width="800" height="786.4" xmlns="http://www.w3.org/2000/svg"><g transform="translate(0, 0)" id="single_state_map"><path d="M730.6163384928259,0.742893290507709L730.6139314128013,4.989589991083449L730.6107219727674,5.078251506934066L730.5952478868985,18.537417587051095L730.592267692582,18.596022279343742L730.5924969382995,72.13894848849486L730.5063005488628,117.42580527770951L730.5583393265297,126.61330284655833L730.5303713491048,142.875092225373L730.5260156804907,153.70059849208064L730.5210868975828,153.70569424601217L730.5209722747259,158.9614372223159L730.5245255833324,160.22352945384773L730.4934627887342,197.40757738383036L730.4933481658773,197.72707695484587L730.4689334970608,207.28405189397836L730.4721429370929,207.3001117276999L730.4360367367299,233.01166871605074L730.517648211835,248.96495892482562L730.5443553378154,289.63951621819615L730.5190236861345,307.96776975142075L730.5703747266489,309.9699864119093L730.5153557546691,311.95859375202053L730.6002912926633,313.99291359071594L730.5174189661175,316.00105924714444L730.509395366038,342.7232534573559L730.5064151717215,350.61943468166646L730.5064151717215,350.64169414163644L730.4119659364878,423.08492707034566L730.4784471942985,440.35448982623984L730.3960333591858,458.983320652761L730.4513961997418,474.81808439106135L730.3784960618668,504.41456625121236L730.4626292398552,509.1815456484469L730.4275546452172,509.51178507328177L730.4074956450168,509.97487351916334L730.4230843537425,510.4840579250108L730.4324834281233,510.524956431193L730.3587809302408,526.3261454365943L730.385488056223,531.9577903601767L730.3993574220767,541.6765639446453L730.3992427992198,541.7362463481995L730.4111635764802,547.8455539953943L730.4235428451775,547.980454166563L730.3607295188322,551.0589410310176L730.3576347016588,551.196677523727L730.3992427992198,590.9132043873428L730.3395242900478,602.3773201006957L730.3387219300403,602.8473399418563L730.3378049471739,603.3459415369298L730.3378049471739,604.0197906955668L730.3425044843625,638.6972061422966L730.2652486778752,684.4110236646752L730.2641024492932,685.0903083972598L730.2142415059334,692.652999112302L730.2293717232296,694.6163873312203L730.2304033289529,713.9133180292238L730.209885837321,715.1830598929992L730.1712579340747,717.5672547715053L730.2105735744699,722.010964411616L730.1610564996881,723.9295299279843L730.1705701969258,745.4825601554949L730.0902195732633,763.9227170935383L730.0867808875137,763.9244647118126L730.0489553442767,766.5470971165059L730.0637416929967,786.3563873387207L703.8787228303936,786.1608665723529L640.6986033396297,786.1463734918134L621.1068059088611,786.2701009220532L605.0711826566148,786.1600614016447L568.4308397748719,786.3127745268412L529.9983685037259,786.2050166874092L506.4805089307283,786.3999999999992L497.97755605688326,786.3916800577776L492.15230777560464,784.1452293016632L442.3431739503667,765.4538064265917L394.2906354284569,747.6250122929314L363.7224384647543,736.378669308443L350.08908107659954,731.4015008722445L348.86089714999616,731.0162889599892L346.1486910770818,729.9690940444602L292.5448529052137,710.5794936977154L262.8704849904734,700.140135882747L252.4000307540373,696.1768177002618L220.77695962546932,684.4341586520809L191.2546962436827,673.5976431656973L187.7100989738501,672.2395317416899L133.94108926318222,652.6039256604299L105.28480157579361,642.2708359897224L69.42698894761452,629.4731819890126L69.38366150717775,629.0717314628996L69.57565479481855,628.6880716016749L69.41094174745194,628.1164327644733L69.41770449609066,628.0070219025388L69.47845461098768,627.9351228027986L69.53909010302414,627.7551693265164L69.56946516046992,627.647250336287L69.82289630015475,627.5560485322512L70.10177371438112,627.5094279731029L70.29766417920109,627.3234876471752L70.44931022072342,626.9997163796315L70.47968527817284,626.7118218754877L70.41904978613456,626.3159898388494L69.87287186636968,625.9561684773616L69.66047570995397,625.4883984565686L69.77658866540514,624.9348270650712L70.25376362447605,624.4554618231027L70.73735746361126,623.7454881448562L70.75604098951408,623.3313404298979L70.43991114634264,623.0323458726016L70.30350994497348,622.5310138736249L70.3190986537029,622.3939496295116L70.54226935879888,622.1698571536331L71.4876786939949,621.7681665335399L71.70156494756702,621.581458844083L71.8968822980969,621.2170102602586L71.95579844725944,620.9431227068517L71.90570825818577,620.4495928245146L71.75394759380652,620.2695290055599L71.60230155228783,620.0535577179567L71.45054088790675,619.9816117739633L71.25556740595312,619.9338742499644L70.47968527817284,620.2695290055599L69.96388241585555,620.2695290055599L69.78186131688562,620.0176528008246L69.75148625943984,619.8375826075926L69.78186131688562,619.5495191741297L69.96388241585555,619.2255416908383L70.48060226103553,618.7780523448132L70.77220281253358,618.3607435366453L70.81873969300068,618.0553699942675L70.54272785023204,617.6970734264573L70.5303485815366,617.4572509744462L70.66376958858746,617.1269602630427L70.93680123704144,616.718845710147L71.0174957292802,616.1613391563938L71.02368536362701,615.9650222147675L70.80991373291181,615.2888405694389L70.71672534911886,615.1828521588604L70.30740712215629,614.9990369536858L70.08114159988872,614.7184787205301L69.95093003286638,613.8989450157778L69.91069740960666,612.7677265218117L70.14028699476876,612.1943887508446L71.06735667263638,611.6795457274652L71.26645657749032,611.7526294484801L71.66339553575745,612.0388357775846L71.99843815054555,612.1262069834415L73.0652330926714,611.6883920112482L72.97376405175419,611.2006119438588L73.02362499511219,610.9854326636237L73.13286057906225,610.8161175150758L73.3697860271568,610.5275685904862L73.91229601545274,610.2158736275032L75.06998688420572,609.2906778795068L75.19286258829561,609.0250981867612L75.1697087709199,608.8373784459782L74.99147022627585,608.5581757109057L75.00488110069637,608.3752134490796L75.76597687975845,607.5873824740611L76.36190112001896,607.1617936731163L76.94773854874984,606.3612216264473L76.96516122321191,605.8834401851445L77.25206223751775,605.2715148642419L77.34995015849927,604.3885670310765L78.95902584320902,601.6412687522602L79.00625046082496,601.5279423061093L79.0010924322014,600.8982257524572L79.84242421206727,599.7031320803922L80.19924516992978,598.9276818670678L80.42482295505215,598.5338072286077L80.63997006006684,597.7021461911586L80.7850825986643,597.3435224863106L81.79433686592893,595.8185722222383L82.22978910458005,595.2779599249998L82.36447096307529,595.2685565740039L82.58832940531829,595.3736283863973L83.73581883968473,596.3508480848327L84.25173632485712,596.3696531033606L84.89889698277875,596.4954279496151L85.075530807404,596.5493894561632L86.17568100129756,596.8208285496248L87.16751259410012,596.8747886103865L87.23399385190896,596.8790127464431L90.16535882987955,597.2813890357829L91.8059558006189,597.6357907036372L92.12552432953817,597.6084036308321L92.10856014650926,597.4747374789417L92.2187127133293,596.839496577566L92.45655514428654,596.7813121914405L95.99989156267839,596.7227187340181L96.00539345987636,595.7177288001421L97.98011606253749,595.7208631353305L97.9871080568937,594.7320083819286L100.87824041160093,594.6968464075858L100.89325600603843,593.7241276910854L102.29589592296361,593.70436448803L102.11398944685243,592.3164982585249L101.7256472029585,591.3639010723537L101.65675886512508,591.0014092003712L101.7353901459137,590.2406727234879L101.74421610600257,589.0569373227909L101.84898139848156,588.7433276120951L102.06745256638715,588.3585310507474L102.84895121422414,587.6265384658818L103.03762043897223,587.3671668522261L103.10948897112212,587.0809243342742L103.6102762390019,586.294984081514L104.20310566209082,585.6160586915403L105.73790573462429,584.8383436956096L105.80014594667773,584.8101093290229L106.04864830345468,584.6788936798371L108.13753527297558,582.5773400538706L108.93084007521793,581.6958776252973L109.32342336486909,577.6494130973292L109.30405210181743,577.0513483987725L109.30405210181743,577.0200931778286L109.60069605907847,573.9536862063987L109.6233913850192,573.1263438625642L109.54074830419268,572.6159846547321L109.44927926327364,572.4184160618684L108.3872984811951,571.3991183459461L108.05179737497383,570.9848205949079L107.78071431511125,570.3480524870033L107.56121154148241,569.3974125530558L107.58184365597481,569.1549949102059L107.84364226431535,568.6731497913961L108.34958756081687,568.0455477458054L108.71741231307715,567.4741898170837L108.9145636293415,567.0179582404103L109.07308704235766,566.5193621017243L109.12558431145771,565.9248446672204L109.08065215100578,565.0797380116742L108.92304572085413,564.3373177717231L108.69964577004066,564.0961648225766L108.10727483838673,563.9447756929603L107.6188668392042,564.1501343147734L107.51593551245605,564.3688790758479L106.67804241833983,564.6582554968018L106.50564963946636,564.6665896535251L106.18367403052434,564.4075449766151L106.03764450905874,564.0685651408812L105.86571022162207,563.2741591243589L105.68196977977823,561.7166217264921L105.39747584549696,560.0176954750596L105.04512517910553,559.0270116250995L104.67156928392978,558.2263953949655L104.07404032365412,557.3453416828711L103.66632681670671,556.9257761653994L103.06684926783782,556.4527391956481L102.67162965244461,556.3191644113926L100.9659268981959,555.9826915796175L99.27753219555052,555.9072197476198L97.16113574003975,555.5448936807757L96.75903875314907,555.5561054432151L96.4007276981265,555.7156668337607L96.04344824882901,556.1025978476655L95.65820082210848,556.6924044668917L95.40408194527481,556.8682197692142L95.08359643348922,556.9662432057194L93.79569399771572,557.0780737117843L91.75838731442855,556.8330842568262L90.95614192923858,556.5276607395908L90.6688970463565,556.3067228770756L89.9929660510079,555.2166031813035L89.37824366198583,554.3598062360011L89.14108896817925,554.1403328013694L88.64156255174021,553.8658828224311L88.29528689683866,554.1585198485595L87.60330870132748,555.4788534536883L87.28362554955129,555.9275917198697L87.05380671867533,556.0861911311758L86.76896891581964,556.0853707947654L86.45455841552211,555.9162435785065L85.79627934034761,555.358940977118L85.46891645706455,554.823900752232L85.30328642683344,554.0533627824693L85.39590169633266,552.7351978095858L83.94076451031106,550.8480246973227L83.696732445007,550.143165281529L83.67529797050702,549.724990280492L83.7566801998928,549.2202061996272L83.70819473083611,549.0605586960646L83.3038052867796,548.8211518711664L83.06538974153409,548.7609574056805L82.31610011687371,548.7415309457201L81.90746962706362,548.6480919711039L81.70596264218511,548.4963717972828L81.5533996178001,548.0938731194715L81.54457365770759,547.2278122819735L81.74183959683069,546.1464484636253L82.02759438255453,544.992320881579L82.81310483043126,542.6054404139013L83.59643744400273,541.691895232575L83.93125081307335,541.1014896298011L84.22755090175815,540.2903703913926L84.48384761290254,539.3192825206443L84.81556616479975,538.729855631525L84.88777856552406,538.2603471690704L84.71366644377667,537.3334624750246L84.852818593743,536.6458866107828L85.21995560885625,535.7170968217761L85.27394297511273,535.1735119156901L85.29342886101949,534.8050818398847L84.95093576044201,533.2428948019833L84.88548610835642,532.7135816054688L85.19233150000582,531.701602347292L85.46249757700207,530.5493736109711L85.47269901138861,530.0182972566122L85.37492571326402,529.691775010449L84.96022021196404,529.034592904562L84.42905788663666,528.401767569007L83.66223096466274,526.985806032671L83.64847622166599,526.8243549579438L83.80161236034655,526.6135607210313L85.37355023896453,525.567621052623L85.64898896744307,525.1698357203527L85.61311201279932,524.8996576513191L85.08229355604453,523.5699253516873L84.68397912347791,523.1028389673593L84.24199338190192,522.7672164821583L83.08590723316775,522.2515624566249L82.12032427491249,521.9595177515384L81.16620360248817,521.7639946375821L80.40075215480829,521.5151299525983L79.96575840759033,521.2648888938725L79.78362268576348,521.1144675036107L78.87076624232395,519.1459257755591L78.87088086518088,518.9258074529744L79.02195379240948,518.6918330063595L79.74189996534369,517.8188457409656L81.21262586009652,516.6533461211761L81.5370085490631,516.2673359129963L81.8488973464755,515.6711492450577L82.3421195057108,514.4025417476237L82.67486966332945,512.2856552786088L82.6593955774606,511.7184998031189L82.55818359358818,511.09093345720066L81.60738698405476,508.9663223534162L81.64624413301499,508.4164421556152L81.61174265266709,508.15453324543614L81.48588675426436,507.93421233734307L80.89053562829213,507.3700075436486L79.8279817319235,505.92546678710596L79.55059441485537,505.4362712143711L79.52274106029108,505.20093394973173L79.55174064343737,505.064727297372L79.71828765653845,504.8611009437873L80.14972809514802,504.67436030159206L81.20276829428258,504.7618266869549L82.25110895622129,504.6061168521919L82.71246596085075,504.25541900360713L82.81585577903024,504.09819207058445L82.85035725937632,503.8273998648324L82.94767206606593,503.68074107304346L83.83049732063591,503.29389925865826L85.44117772535901,503.2451483348709L87.22000986319836,503.9678775220118L87.85662521815357,503.98353182122037L88.2335051762202,503.8858980932205L88.94852256624836,503.45855231385303L89.87914555272255,502.6371869750242L90.51450005623883,501.8939131262846L90.80277654484416,501.1500435294088L91.3577804246961,499.22642543611346L91.23031980627275,498.274116819548L91.28499490967988,497.98959092179075L92.4823452874025,496.0375682529766L93.01293449843615,495.47884643421L93.71752120836027,494.5773609723301L93.94481833635473,494.17593061678417L94.22335188200304,493.30485852135325L94.88002623716056,492.0966867672737L95.26000101240061,491.6829387781863L96.15073524419131,491.1314356992648L96.91996924619161,490.9832458184428L97.40413619961873,490.75284675326475L98.38645409518358,489.7190203560349L98.43356408994259,489.5082572193505L98.40112582104484,488.67479197001694L98.55334497685908,487.7961667037089L98.623150297557,487.6455976414486L100.55878650554223,486.1794090477306L102.55459971412893,484.8384761071734L102.57844126865348,484.63876730218544L102.2984176258451,484.11843582745496L101.28629778712275,482.5610189248523L101.25179630677667,482.51066976708034L100.75490621607969,480.93391777734496L100.71857077000277,479.4483243094792L102.02882466314259,477.35136314006377L102.30437801447624,477.0511968278656L102.53007042245372,476.7043652225648L102.5523072569631,476.30398232077323L102.41888624991043,475.98355615616265L102.1718739902899,475.67372004878007L101.9742641825942,475.1293193688098L101.95202734808481,474.4886702299691L102.10768518964687,474.1147816416242L102.28546524285593,473.7143113115071L102.28546524285593,473.1001571071565L102.17428107031446,472.5661020699836L102.04097468612053,472.1922905341098L101.92979051357725,471.7116190396391L101.90755367906786,471.36449353027456L102.12992202415444,470.9639302780124L102.28546524285593,470.6166451638592L102.41888624991043,470.4030638954782L102.48559675343677,470.2694875801508L102.50783358794615,470.0559000543508L102.48559675343677,469.78873809041215L102.39664941540286,469.6017211312883L102.28546524285593,469.41483893835994L102.12992202415444,469.1743804316011L101.96922077682939,468.9007255517736L101.82101342105852,468.4777668976585L101.76095104331216,467.92601109110547L101.89563290180558,467.3561853672036L102.18975515618331,466.88248050819857L102.62795834343524,466.4423684342637L103.18342071472034,466.0850322327851L103.95185235671124,465.6980665658157L104.80189547380905,465.45835916789565L105.7766482607276,464.92395951427716L105.86490786161266,464.71000001550874L106.03936385193265,463.40549358855424L105.9586693596957,462.5087342477418L105.76793692349747,461.8576179221236L105.2838845929291,461.43743939021897L105.06919597934757,461.1094444640221L104.89554234903517,460.6310792564991L104.59488659173257,460.29162254669245L104.19760376489103,460.06724223947003L103.95884435106746,459.78221246740213L104.43361223011561,458.765945474629L104.68647025550854,458.1102118642284L104.86035313154025,457.4686411954999L104.8767442002736,456.72653181713395L104.81679644538599,456.16347366236005L104.56164596282906,455.13421011863466L103.45610849459808,452.3189610407435L103.0709756907363,450.78411597860395L102.15903623016129,448.64730366170716L102.26093595118255,448.47788714074613L102.77066380200995,448.0932419052697L102.99773168428692,447.67215964571915L103.0851889251644,447.20994523795434L103.02845061030894,446.87920936672435L102.69100091549626,445.8380966215336L102.44685422733528,445.38395225761724L101.98171466838357,444.0799322089142L102.00601471433947,443.5703743426475L102.1130724639861,443.13229155058707L102.30563886591881,442.79716240695416L102.56250869135147,442.6425691460099L103.44728253450921,442.6918459680619L103.69234620553834,442.62034619807673L104.72796373021083,441.8421025032558L104.92866835507994,441.63807765174806L105.02839024179593,441.32830651051154L104.98506280136098,440.35918377703L104.8767442002736,440.10184206881877L103.94520423093309,439.2731746214313L103.48281562058037,438.85315796417854L103.3330035447907,438.5437278282252L103.24738026964587,438.3117534525645L103.20462594350465,438.05395275950286L103.22606041800464,437.84765290724954L103.3330035447907,437.61552673138704L103.50425009508217,437.4350423609103L103.80215490378214,437.19158430983316L104.11977484411182,437.03415555057745L104.37607155525438,436.8213471892168L104.45860001322399,436.65935615692433L104.46639436758778,436.38398009750017L104.39326498399714,436.0675796926398L104.05478368345939,435.3778498179754L103.26124963550137,434.4902845139068L102.46725709611019,433.83361438140037L102.12063757263422,433.6399490916365L101.51382416083288,433.3086939397226L101.3638974621881,432.9734232876708L101.30761763876762,432.12353085466293L102.0868238294388,430.3044552350966L102.85227527711322,429.22580919888605L103.55628887274543,428.8826833937246L104.08687808378272,429.0299951755096L104.27749589712221,428.9990405077451L105.38761827968301,428.3737111279461L105.94193442238611,427.6763432678581L107.11830881704009,426.47609924170047L107.31167757898038,426.168416767061L107.39924944271479,425.83169841167L107.49988831229712,425.6824113245111L108.13581593010167,425.2451827671184L108.6824523412979,424.74531507353095L109.04993322498194,424.07662583464844L109.24995011270403,423.99533540170523L109.68666320279772,423.95164847404885L109.82501299275646,423.82639328070854L109.92886130237093,423.55514070094887L109.91155325076761,423.2003737952882L109.63473904799139,422.4700677306246L109.60012294478656,422.17790493340453L109.63473904799139,421.92749364617885L109.82501299275646,421.697956797826L110.08451914392936,421.5936958075945L110.55435824006963,421.5753048472079L111.08173801107478,421.3532282694614L111.81360496127127,420.85513090488894L112.1896825593285,420.4191055094225L112.45033493908522,419.9655002153804L112.69046982720647,419.2084381907189L112.83053896004094,417.86665604356494L112.76692327368801,417.1984048528948L112.41182165869941,416.1484363188001L112.31966488063154,415.6497029252296L112.32722998927966,415.0848150512811L112.5171600654703,413.1416032506613L112.7755199880612,412.06359337909635L112.91856931521033,411.00458393024746L113.01038222470197,410.8614746860894L113.62407300799896,410.256078334568L113.83704227870658,409.6671225104619L114.48683926236481,408.77788845139276L115.01307280478613,408.20062535055513L115.49758362678767,407.8690668928657L116.15551883338594,407.6601594784279L116.68152313008977,407.6446539419103L117.91795990249193,407.8617295849308L119.21675150980263,407.0443523872691L120.3557588526528,406.8326612198689L120.67395190727257,406.6861781062398L121.37532917716453,405.9936121430601L121.83714467322352,405.0448327234317L122.22021426563697,404.6720571274109L122.79092147707524,404.48691119466366L124.15951840508569,404.54548797329244L125.48180769834835,404.16826500130173L125.91725993699947,403.90846707341825L126.89969245542306,403.0579901213305L129.12337590629613,400.0177323657899L129.75517710120403,399.49074232716976L131.13374621788535,399.2661686399442L131.93610622593224,399.5349361475819L133.55526872216979,399.0332779840028L134.69576616218,398.2305247265167L135.09453908617797,397.730750423304L136.35504665882036,397.218622400188L136.6623505419011,396.95007877059925L136.9022561843085,396.25305593408393L136.79680315467886,395.16129326950704L136.8732566011604,394.90240388935126L137.08072397467004,394.69534369289977L137.98968324092857,394.16589597931124L138.41298545660175,393.8078814784376L138.81508244349243,393.2581560876888L140.8068838520394,391.12983997929405L142.27703663249667,389.8666402996596L142.46582048010532,389.652696667069L142.51797388062732,389.4886659376398L142.7043506482114,389.10416221673495L142.84224194673698,388.8603916662605L143.59680422287602,388.52467883592L143.83292731095753,388.2445640851911L143.90273263165727,388.01131488959436L143.9881266610846,387.75642726220485L144.1366778854317,387.49973121116454L144.38070995073758,387.3327578686158L144.70669735972115,387.30876565543076L145.10867972375127,387.32623975777824L145.81785134800703,387.1494172764651L146.0906537507417,387.14123483794356L146.7467549916073,387.1530230950093L147.07572259490735,386.9092117772334L147.25602435100154,386.6010425137765L147.27722957978585,386.20312875329546L147.23814318510813,385.8455634358188L147.02001588577696,385.09489026298434L146.97714693677517,384.7285519782572L147.0911966807762,384.19934553232815L146.8258447638309,383.12684853095107L146.69185064248632,382.11682711138656L146.84854008977163,381.41031505184674L146.8353584610686,381.09200988158227L146.5318371323101,380.71888521027995L144.6662354907421,379.0615344286025L143.33649571169371,376.056386286441L142.87364860990783,375.2975855426994L142.4078213138091,374.6968679152278L141.92227888608068,374.29702018493117L141.41667745815357,373.9915716916421L140.7818960689292,373.75012286864785L139.82043953357424,373.02144187892736L138.18224964285946,372.8705070134465L136.76860593154015,372.3906127762457L136.35837072171125,371.97513279687246L135.83236642500742,370.89831514959496L134.5731197038058,369.64875398243566L134.18477745991186,369.3079033885533L133.71596996949665,369.031909870092L132.38886651618668,367.4720830439164L132.02161487821832,367.3113516165504L130.57885696089215,367.21952393485935L129.81157154748507,366.9148619974394L129.59825840820122,366.73661786340926L129.41990524069843,366.50488250922353L129.2443030217928,366.11406175910815L129.18985716410498,365.2106639544836L128.89069150396244,364.6850158370171L128.18232223971427,363.932142929305L126.89453442679951,363.1095964306742L126.11475512183642,362.6780801678806L125.30368377655941,362.48073083361487L124.78341062277104,361.3627252333845L124.51725634581453,360.9753453731182L124.24433932022112,360.70346287596567L123.75661905818743,360.5092770515712L123.41412595760994,360.5083040292402L121.87703342790883,360.7443290566598L121.03123135656824,361.01829555335553L119.84889657328495,361.1343575433557L119.61162725661961,361.0148206255881L119.26053744166893,360.65648049047013L118.36109187264992,359.6090575259459L118.279938888978,359.2502569381668L118.30515591780386,359.0376960694857L118.72490482486864,357.87208708287835L118.93397691839345,357.08859969095556L118.95071185570305,356.8323384724863L118.78072615685778,355.2999367642833L118.85866970049756,354.34674195568095L118.96824915302386,353.8620483662917L119.34398288250668,352.7429337758249L119.3326352195345,351.4585867460928L119.03289644510005,349.62174960290486L118.02822709216889,347.7769676338976L116.23724493134978,344.0671730173808L114.27100442020128,342.52556411703426L113.42680706887768,340.9908509179113L113.42680706887768,340.41829213453L113.38749142848246,340.2751480102643L113.68413538574532,339.94749725210477L113.93217925108911,339.72260621323767L114.04817758368154,339.5142821913323L114.06239081810963,338.3841703786411L113.5527775901428,337.8008975569919L112.39611832711307,336.8518325122159L112.091336146912,335.63774020532946L112.07677904390948,335.44856656502725L112.21787978246903,334.5136578401607L112.08365641540877,333.9159787415565L111.76145156074745,333.35700238246227L111.15704522897249,332.6769151600438L110.90441644929524,332.2731074883859L110.87942866618869,331.87667110939583L110.80412144828915,331.54125719051535L110.90074851782992,330.939522221498L110.90441644929524,330.7788405808624L110.87942866618869,330.53481761162766L110.80412144828915,330.2907894849013L110.61189891493268,329.91616631010857L110.5425520856661,329.6572120844339L110.47801941644866,329.2842408925326L110.35262200947545,328.97927641888236L109.70947315159901,327.88590976530395L109.35781022235642,327.13287060617404L109.03182281337286,325.65731781188697L108.97107269847766,324.8504519033677L108.75821805062878,324.32129457359406L108.62720412360068,324.098469545831L108.39085178980349,323.9593062994136L107.97649015707611,323.88261240978045L107.44269150600667,323.67037684194565L106.8908970661887,323.24310495513964L106.40913719278615,322.4415091064184L106.28924168301091,322.3224085169313L105.84897528431065,322.00805515001866L104.98895997854379,321.54906152479725L104.19450894771762,321.22338951250185L103.4692901233011,320.78221827436846L102.96162548392567,320.1645780672152L102.78155297354715,319.80789948305755L102.4386013815365,319.35105020785977L101.97965145693342,318.8185712626482L100.75421847893085,317.9414688467732L100.0002293170819,317.2867026105587L99.33564598470366,316.5794351288778L98.6512328978406,315.60531898737645L97.23483823792048,312.75240510244294L96.82689548525923,311.1538389937268L96.61106064309388,309.82004167328523L96.07531340343485,308.31001432701123L95.42012914543557,306.97546820628213L94.79004729340159,306.2100276576057L93.83707284955926,305.34299749069123L93.42420131399012,305.03404632402635L91.6334483988885,304.0143926690098L91.1679649713642,303.6141888054199L90.39506303789858,302.69024434381026L89.970958462216,301.77684368365044L89.87994791273195,301.48162845967636L89.69746832232886,299.9862949925182L89.70239710523674,299.5109108595625L89.85140682101701,298.6605641633614L90.37271158053045,296.9735190590918L90.40996400947733,296.33209454120515L90.1022016349616,295.02117911796904L90.10036766922713,294.5489444796249L90.2215240304431,293.7073176795884L90.5015476732533,292.5809510339577L90.49971370751882,291.97186161271384L90.49489954746969,291.7243573552796L90.2805548024644,290.81539757495466L89.90550881013223,289.75140355733856L89.87295591837392,288.87991216522096L89.94516831910187,288.33287095388096L90.48389575307374,286.69187038943437L90.58613934267305,285.94242385979123L90.56608034247074,285.1394809598314L90.48148867304917,284.7402970732355L90.12787715521881,283.7125409097189L89.70824287101095,282.77187776055234L89.55361663517215,281.12756069947864L89.68314046504383,280.0342508993126L90.19481690446082,278.74372816421237L90.80289116770291,277.7448344481036L93.14463616261492,275.75378672259103L93.49710145186327,275.01370626942116L93.57859830411144,274.4028412380194L93.36906771915346,273.52863967078974L92.40669420093036,272.370730842018L91.33095867585507,271.5854654660334L89.00250993250484,270.4927838089088L88.55227134513189,269.7405938610391L88.82816856504178,269.1756833095196L90.48080093589851,267.4426682468129L91.6303535817151,266.9718166420962L94.01278969132181,267.05337625712855L95.31719781868924,266.6779449492651L96.37356208071287,265.97427578085353L97.03573833306655,264.5761984484079L97.40000977672025,261.165712881786L97.43794994281598,258.3013114614196L97.10772148807337,255.90134609255983L96.79640580495288,255.15689084119276L96.20861978762878,254.63194138444578L95.7964359892103,251.78512116757884L95.84778702972471,250.64001886936967L95.38723238510465,247.23125432507095L94.19813485318082,242.3761491523428L94.37832198641809,238.4038054456796L93.4174385653514,234.4202342703702L92.60120919145265,232.24561225327943L90.80140107054467,226.55859078980666L87.95095983052852,223.79320755401932L86.79097650461154,221.67226206882333L86.51874721616696,220.93273584696635L86.30360011115226,218.48995809397366L85.55580058365376,216.39954960101932L85.0122589896273,215.2686088085693L84.83321808497567,213.8255590129993L85.06246380155972,211.9248166517027L85.45218151975496,211.30520048850576L86.6786461034826,210.3757125588054L87.26322268077274,209.53065719673577L87.3893078248966,208.9813373239258L87.33199639574923,208.69962446632326L87.01105239253047,208.29112834662828L86.80473124760465,207.41774226988764L86.69010838931354,204.8536822924616L86.3257223228029,202.89688989982915L86.38704555198638,202.49494873848653L87.07971148465003,201.4996176777413L87.68721263359839,200.0759528224471L87.79037320606221,198.21519165544032L87.24018348625941,197.0449217127225L85.07369684167315,193.885996456469L83.66383568467609,192.4863377640104L83.59494734684449,190.61345985662956L84.4891202643812,188.70866233576362L84.67251683765062,187.6785264792461L84.37438278323134,187.12828242262003L83.12499362784547,186.30971110569408L82.31117133396765,185.46285054175223L81.82964070628259,184.46064987897444L81.84110299211352,183.99480791640144L82.7580858584497,180.87472233974677L82.94148243171912,177.7253804402062L82.28813213945432,175.87490708012956L82.57457466232518,172.89387399217412L81.06155293286793,170.63274015323714L81.3137232211102,170.06738552794923L82.02438494252056,169.44546254843863L82.94136780886038,167.18137179544738L82.8611318080566,166.73135477707365L82.4670584212472,165.3882654506724L82.4670584212472,164.6689346143421L82.7055885893551,163.7534073269244L84.51170096746682,162.5597438831437L84.7992897189215,161.889454622441L84.95827162337446,161.33356078731413L85.0378198870294,160.9410237227503L84.98474950363925,160.7121435140025L84.8522454794529,160.18872868197923L84.613715311345,159.4363831313458L82.41857295219052,157.11479993162175L81.47350748556892,155.62309010485114L81.58698411527803,153.39428280024185L80.65097385446279,152.45305981096226L79.08476711875664,151.50397094404707L78.87810210525276,151.1495992546079L79.20374564566191,149.39753847966676L79.01771274665225,148.5630396916431L77.7965208144069,146.65491463047238L77.4341979593446,145.31791421738762L77.49299948564658,142.28112937314017L77.54618449189547,141.79468541439655L77.80488828306261,141.316722611351L78.87775823667835,140.10847521126652L79.0445344954951,139.21503064446006L78.96108905465735,138.7684232889851L78.51646698734112,138.14986172950194L77.93292201577424,137.8405680968226L77.79399911152359,137.3937639964497L77.82173784323277,137.01569592335454L77.82173784323277,136.22521300796052L78.23862117883982,135.50343732720103L78.29421326511147,134.91914904258647L77.48165182267803,133.20835960766908L76.24865373602734,131.9454826296169L76.08909871728065,131.63899535570272L76.07454161427813,130.84969156829902L76.3014948737,130.34771351661675L77.05330620124005,129.45405438202852L78.30430007664108,128.4096590641775L80.46746265833644,127.93878379949274L81.3296557984122,127.93083876144283L86.28514583096694,126.56860661746396L86.70329001801656,126.20123938879533L87.04028122139607,125.60340811057176L90.27654300242284,123.02596651410204L90.71910185828892,123.20963304629095L91.40362956801073,124.47023610367705L91.99840757969105,124.75818766761404L92.96467827509696,124.21208098491388L94.2314901049449,123.05477993395198L97.1178082996048,121.70529506409457L100.12574134691386,121.61472737392069L104.03071288321917,121.79813327956344L104.60497340326401,122.17842119150919L104.84338894851135,122.55429584428293L104.82172522829387,123.010637176606L104.75673406764145,123.70866838788152L104.66996456391462,124.11131513128657L104.71329200435139,124.56759266502922L104.86505266872882,124.80927735973546L105.12524655705238,124.94338668663659L105.81894409543747,125.07763631096259L106.86040738588417,124.8582380947937L108.79547047957567,123.52344883589922L109.5422384013491,123.39656101987748L110.14607161883214,123.55396414646293L110.72422931605979,124.66948972887258L111.2596326871444,125.28198781286392L111.49449492378517,125.34442780181325L113.7223047975549,123.87770515245938L114.89363578644588,122.53555919079463L115.41826460885022,122.32363408913079L116.20893308535051,122.30702625834056L120.03378324370897,122.91127984782906L121.06504509976548,124.7376098087534L124.02644126660925,127.89139723868811L125.00027707065965,128.2487777372753L127.33250836833577,131.51957508138366L127.64107310285726,132.59190063638744L127.39566556325553,133.10115179921286L126.67044673883902,133.76366821931333L126.45231943950785,134.26138048517168L126.51559125728636,134.7739583698758L126.69084960761393,134.9623939461353L130.5680824122137,136.63577209833238L131.66353306891142,138.14433364170964L132.11331316485303,139.06309260338185L132.52308988324694,139.53094743393012L133.72605678102627,140.3450049604926L135.31381261409297,141.14313188771575L135.94538456328337,141.1816763467159L138.1918779629559,140.99405427211968L140.63449107316592,140.23163003178615L142.4175642567643,139.28802253159301L143.60494244581423,139.27569189677524L145.01881540285103,139.82502972774637L145.29448337704343,139.72568038295776L145.69956055824878,139.2367156626915L146.84452828973008,137.35563172685033L146.96075586804,136.5758053277923L146.84441366687315,135.67187000617105L146.99422574266282,134.77778666381982L149.5577659683695,129.7076906363036L149.59971793450495,129.45731707742289L149.22215023928948,128.90250327838476L148.5616933298097,128.35589034293025L148.4752676946573,128.10491892262417L148.57051928989858,127.38687393645887L148.83208865252163,126.95838007786642L149.96123842955967,126.20932755784452L150.8540358727987,126.16661628299062L151.23825169379597,125.95688877658176L152.4894748149145,122.73144082810268L154.88818737039946,117.58031070269499L155.77364895070968,116.34477530514596L157.3169311147576,115.67639286461599L157.327820286293,108.40524454270053L157.2862121887356,107.64556079518388L157.15783458744772,105.04660880203119L157.12470858140114,102.09992960842828L157.3058126975011,98.42316146522899L157.2314224624697,96.98290039341191L157.43522190451586,87.6604945187637L157.4325855787738,80.26764387360708L157.3570491151604,75.92437936356964L157.12917887287404,72.14194290186242L156.99346540865554,54.85591842880058L156.93535161950058,54.303925264207464L156.89007559047604,49.835403477568434L156.88354208755482,23.103058388111094L156.95506675112847,6.670879963009611L156.88571992186007,0.554591275443272L166.59347365921712,0.6078385924247414L166.59347365921712,0.6148712375115792L281.1516846595259,0.5799950143364185L322.0358242466864,0.5033530458804307L327.86015554509686,0.5121080545268342L329.4511208181957,0.5060800165401815L329.9928284464859,0.5154091215372318L349.6417080606843,0.4499616935663653L350.93190295362183,0.46431423330250254L460.0323465563397,0.39886649888740067L460.07269380245816,0.3965700800235936L474.6562746858581,0.5446881069728988L477.3422321242215,0.45685091499581176L491.2270720634697,0.49962140071511385L498.9322498436013,0.26854396397448L535.130836229484,0.15257282237143954L549.4586935160332,0.07736315585225384L549.4684364589903,0.12113983777453541L552.4592907004098,0.11654688267572055L563.7865508025807,0L564.9077916023962,0.09961034402385849L567.2825479804997,0.8989001970912796L618.6808131131056,0.812070501290691L621.076660097131,0.8264225647853891L621.0994700459323,0.9030622643322204L635.4277858239111,0.8261355236991221L664.0840735112997,0.8542655141327486L679.022870632547,0.7398793356742317L692.102714238008,0.7337079017406722L692.4680172873868,0.7355736844601779L704.8406378571817,0.7167723209349788L705.0565873222058,0.7202168479743705L705.6094133677489,0.7172028868726557L707.4975957124007,0.7052905562841261L708.995601847424,0.7167723209349788L715.0307245822332,0.7160547109951949Z" class="state" fill="coral" stroke="#111" stroke-width="0.5"></path></g></svg>